<svg xmlns="http://www.w3.org/2000/svg" version="1.0" viewBox="0 0 100 125"><switch><g><path fill="#fff" d="M85.8 4.1c-.6-1.1-3.9-3.6-6.6.4-2.7 4-5.1 10.9-5.1 10.9l-1.4-.1c-1.4-.1-3 .5-3 .5-.8-.3-1.8.3-2.4.2-.6-.1-1.6-.6-2.4-1.1-.8-.4-2.5-3.2-4-7.3-1.5-4.2-4.7-4-5.8-4-1.1.1-3.9 1.9-4.5 7.6-.6 5.7.6 11.4 1.8 12.5 1.3 1 .2 2.1.3 2.8.1.7.6 2.2.3 2.5-.3.4-1.6 1.1-3.3 1.1-1.6 0-4.4-2.2-8.1-3.5-3.7-1.3-12.2-1.3-17.5 4.2-5.2 5.5-6.5 10.1-7.1 12.5-.6 2.5.3 4.5-1.4 8.3-1.6 3.8-1.3 7.1-1 8.6.3 1.5-.5 3.4-.8 4-.3.7.2 2.8.3 3.7.1.9-.3 5-1 8.9-.7 3.9.3 5.5.8 5.8.5.3 2.2-.1 2.2-.1l.4.2c.4.2 1.3.3 2.7.1 1.5-.3.9-1.3.9-1.3s.8-.1.8-.9c.1-.8-.9-1.9-1.7-2.8-.8-.9-.6-3.7-.5-6s1.1-3.8 1.3-4.7c.1-.9 3.6-7.3 3.6-7.3l1.1-1.1c1.1-1.1 2.6-4.9 2.6-4.9s1 .1 2 .1c1-.1 1.6.6 2.5 2.2.8 1.6 2.8 4.6 2.8 5s-.4 4.7-.6 6.6c-.2 2-1.3 4-1.3 5.1 0 1.1.6 3 1.1 3.5.6.5 1.5.3 1.5.3l1.3.4c1.3.4 2-.1 2.8-.4.8-.4.4-1.1.5-1.6.1-.5-.5-1.7-.7-2-.2-.3-1-2.2-.8-6.1.2-3.9 1.7-4.4 1.7-4.4s.6.2.9.4c.3.2 2.4 1.1 2.5 1.8.1.6 1 10.5 1.1 11.6.1 1.1.5 3.9 1.3 5s.8 3.9 1.4 6 .1 6.3 0 7.6c-.1 1.3.5 2 1.4 2.3s2.4-.3 2.4-.3.6.4 1.8.8c1.2.4 3 0 3 0l1-.2c1-.2.8-1.7.8-1.7s.5.2.8 0c.3-.2.2-.8.1-1.6s-2.7-2.9-3-3.2c-.4-.3-.6-2.5-1.1-3.4-.4-.8-.7-3.7-.8-4.4-.1-.7-.2-3.4-.4-4.7-.2-1.3.7-5.2.9-6.6.1-.7.6-1.2 1.4-1.5.1-.4.3-1.3 1.3-1.6 1.3-.4 4.1-1.6 4.4-2.4.4-.8.8-1.1.8-1.4 0-.2.8-2.6-.8-3-1.5-.5-1.9-1.9-1.7-3.2.2-1.2.9-2.6 1.2-3.4.3-.9-.1-.6.7-1.3.8-.6.9-.7 1.4-1.3.4-.5.3-.7.7-.9.4-.3 1.1-.3 1.4-.6.3-.3.3-.8.3-1.1 0-.3-.1-.5-.1-.8 0-.3-1.8-.5-1.9-1-.1-.5 5.3-.2 5.3 0 .1.2-1.7.4.3.4.3 0 2.1-.3 2.5 0 .4.3-1.1 1.1-.9 1.4.2.3.2 1.2 0 1.5-.2.3-.6.9-.7 1.4-.1.5-.4.4-.1.8.3.4.1.5.5.8.4.3.1-.1 1.2.9 1.1 1 1.5 2 1.3 3.2-.2 1.2-.2 2.1-1.9 3.4-1.7 1.4-3.6 2.4-4.7 3.5s-2.1.5-3.3 1.4c-1.2.9-1.9 2.2-3.3 2.5 2.2-.2 4.3-1.4 5.6-2.2 1.5-.9 2-.8 1.9-.3-.2.4.1.8 0 2.5s-.1 6.7.6 9.1c.7 2.4 1 4.9.5 6.1-.5 1.2.6 2.2 1.2 2.9.6.8 1 2 1.1 2.5.1.5.8.7 2.1 1.4s2.7-.3 2.7-.3.5-.1 2.1.3 2.2-.6 2.2-.6 1-.1.7-1.8c-.3-1.7-3-2.5-4.2-3.5-1.2-1.1-2.4-5.1-1.8-8.3s3.5-8.2 3-11.8c-.5-3.7 1.1-5.8 2.4-8.2s-.1-6.3-.9-9-.3-2.7-.3-2.7l1-.2c1-.2 1.7-.8 2.2-1.3.4-.4.8-2.1 2-4.2 1.2-2.2 2.5-6.3 1.9-8.6-.6-2.3-.4-4-.3-4.7.1-.6-.3-3.5-.3-3.5s.6-.6 1-1.8c.4-1.1.4-2.7.1-3.7-.3-1-.1-3.5.5-6.3 1-3.1-.1-6.2-.7-7.3z"/></g></switch></svg>