<?xml version="1.0" ?><!DOCTYPE svg  PUBLIC '-//W3C//DTD SVG 1.1//EN'  'http://www.w3.org/Graphics/SVG/1.1/DTD/svg11.dtd'><svg enable-background="new 0 0 32 32" height="32px" version="1.1" viewBox="0 0 32 32" width="32px" xml:space="preserve" xmlns="http://www.w3.org/2000/svg" xmlns:xlink="http://www.w3.org/1999/xlink"><g id="Google_Ads_AdWords"><g><g><g><path d="M12.066,4.814c1.207-2.174,3.946-2.956,6.119-1.748c2.172,1.207,2.955,3.946,1.748,6.119l-10,18      c-0.822,1.48-2.356,2.315-3.938,2.315c-0.74,0-1.489-0.183-2.182-0.567c-2.172-1.207-2.955-3.946-1.748-6.119L9.645,9.176      L12.066,4.814z" fill="#FFF176"/><path d="M5.996,30.001c-0.844,0-1.683-0.218-2.424-0.63c-2.41-1.34-3.281-4.39-1.942-6.8L9.208,8.933      c0.134-0.24,0.439-0.327,0.68-0.194c0.242,0.135,0.329,0.439,0.194,0.681L2.503,23.058c-1.071,1.928-0.374,4.368,1.554,5.438      c0.594,0.33,1.265,0.505,1.939,0.505c1.454,0,2.795-0.789,3.5-2.059l10-18c1.071-1.928,0.374-4.368-1.554-5.438      c-0.934-0.521-2.014-0.645-3.042-0.351c-1.027,0.293-1.878,0.97-2.397,1.904c-0.134,0.24-0.439,0.325-0.68,0.194      c-0.242-0.135-0.329-0.438-0.194-0.681c0.648-1.168,1.713-2.013,2.997-2.38c1.283-0.365,2.635-0.211,3.802,0.438      c2.41,1.34,3.281,4.39,1.942,6.8l-10,18C9.489,29.016,7.813,30.001,5.996,30.001z" fill="#455A64"/></g></g><g><circle cx="6" cy="25" fill="#1DE9B6" r="4.5"/><path d="M6,30c-2.757,0-5-2.243-5-5s2.243-5,5-5s5,2.243,5,5S8.757,30,6,30z M6,21c-2.206,0-4,1.794-4,4     s1.794,4,4,4s4-1.794,4-4S8.206,21,6,21z" fill="#455A64"/></g><g><g><path d="M26.004,29.501c0.74,0,1.489-0.183,2.182-0.567c2.172-1.207,2.955-3.946,1.748-6.119l-10-18      c-1.207-2.174-3.946-2.956-6.119-1.748c-2.172,1.207-2.955,3.946-1.748,6.119l10,18C22.889,28.666,24.423,29.501,26.004,29.501z      " fill="#80D8FF"/><path d="M26.004,30.001c-1.817,0-3.493-0.985-4.375-2.572l-10-18c-1.339-2.41-0.468-5.46,1.942-6.8      c0.742-0.412,1.581-0.631,2.425-0.631c1.816,0,3.492,0.986,4.374,2.573l10,18c1.339,2.41,0.468,5.46-1.942,6.8      C27.687,29.783,26.848,30.001,26.004,30.001z M15.997,2.998c-0.675,0-1.345,0.175-1.94,0.506      c-1.928,1.07-2.625,3.511-1.554,5.438l10,18c0.705,1.27,2.046,2.059,3.5,2.059c0.674,0,1.345-0.175,1.939-0.505      c1.928-1.07,2.625-3.511,1.554-5.438l-10-18C18.792,3.787,17.451,2.998,15.997,2.998z" fill="#455A64"/></g></g></g></g></svg>